<svg xmlns="http://www.w3.org/2000/svg" xmlns:xlink="http://www.w3.org/1999/xlink" width="500" zoomAndPan="magnify" viewBox="0 0 375 374.999991" height="500" preserveAspectRatio="xMidYMid meet" version="1.0"><defs><g/></defs><rect x="-37.5" width="450" fill="#ffffff" y="-37.499999" height="449.999989" fill-opacity="1"/><rect x="-37.5" width="450" fill="#ece9e6" y="-37.499999" height="449.999989" fill-opacity="1"/><g fill="#d5ccc4" fill-opacity="1"><g transform="translate(78.449477, 229.874992)"><g><path d="M -2.578125 0 L -2.578125 -1.96875 C -0.453125 -2.675781 1.617188 -4.066406 3.640625 -6.140625 C 5.671875 -8.222656 7.851562 -12.148438 10.1875 -17.921875 L 40.109375 -92.078125 C 41.023438 -94.503906 40.925781 -96.882812 39.8125 -99.21875 L 38.4375 -102.40625 L 49.828125 -107.578125 L 87.21875 -17.78125 C 89.539062 -12.101562 91.640625 -8.222656 93.515625 -6.140625 C 95.390625 -4.066406 97.140625 -2.675781 98.765625 -1.96875 L 98.765625 0 L 75.203125 0 L 75.203125 -1.96875 C 77.535156 -2.675781 78.5 -4.066406 78.09375 -6.140625 C 77.6875 -8.222656 76.269531 -12.101562 73.84375 -17.78125 L 64.578125 -40.109375 L 21.734375 -40.109375 L 12.765625 -17.921875 C 8.910156 -8.304688 9.519531 -2.988281 14.59375 -1.96875 L 14.59375 0 Z M 22.640625 -42.390625 L 63.65625 -42.390625 L 42.84375 -92.375 Z M 22.640625 -42.390625 "/></g></g></g><g fill="#d5ccc4" fill-opacity="1"><g transform="translate(175.838875, 229.874992)"><g><path d="M 7.75 0 L 7.75 -1.96875 C 10.082031 -2.675781 11.675781 -4.195312 12.53125 -6.53125 C 13.394531 -8.863281 13.828125 -13.117188 13.828125 -19.296875 L 13.828125 -87.0625 C 13.828125 -93.34375 13.394531 -97.617188 12.53125 -99.890625 C 11.675781 -102.171875 10.082031 -103.664062 7.75 -104.375 L 7.75 -106.359375 L 44.0625 -106.359375 C 54.5 -106.359375 63.410156 -104.863281 70.796875 -101.875 C 78.191406 -98.882812 84.21875 -94.90625 88.875 -89.9375 C 93.539062 -84.976562 96.960938 -79.484375 99.140625 -73.453125 C 101.316406 -67.429688 102.40625 -61.332031 102.40625 -55.15625 C 102.507812 -44.519531 100.304688 -35.046875 95.796875 -26.734375 C 91.285156 -18.429688 84.898438 -11.898438 76.640625 -7.140625 C 68.390625 -2.378906 58.695312 0 47.5625 0 Z M 26.28125 -13.375 C 26.28125 -9.820312 26.890625 -7.082031 28.109375 -5.15625 C 29.328125 -3.238281 32.007812 -2.28125 36.15625 -2.28125 L 47.25 -2.28125 C 60.519531 -2.28125 70.722656 -6.101562 77.859375 -13.75 C 85.003906 -21.394531 88.578125 -33.171875 88.578125 -49.078125 C 88.578125 -59.203125 86.601562 -68.414062 82.65625 -76.71875 C 78.707031 -85.03125 72.882812 -91.664062 65.1875 -96.625 C 57.488281 -101.59375 47.960938 -104.078125 36.609375 -104.078125 L 26.28125 -104.078125 Z M 26.28125 -13.375 "/></g></g></g><g fill="#393939" fill-opacity="1"><g transform="translate(54.42065, 197.643137)"><g><path d="M 92.125 -15.578125 C 89.957031 -15.828125 87.769531 -15.953125 85.5625 -15.953125 C 84.59375 -15.984375 83.609375 -16.007812 82.609375 -16.03125 C 73.503906 -16.40625 64.378906 -16.503906 55.234375 -16.328125 C 54.785156 -16.328125 54.410156 -16.328125 54.109375 -16.328125 C 53.609375 -16.359375 53.242188 -16.351562 53.015625 -16.3125 C 52.796875 -16.28125 52.617188 -16.15625 52.484375 -15.9375 C 52.347656 -15.726562 52.1875 -15.382812 52 -14.90625 C 51.875 -14.632812 51.726562 -14.296875 51.5625 -13.890625 C 50.039062 -10.566406 48.640625 -7.191406 47.359375 -3.765625 C 46.535156 -1.546875 45.894531 0.722656 45.4375 3.046875 C 45.269531 3.773438 45.210938 4.484375 45.265625 5.171875 C 45.316406 5.859375 45.625 6.472656 46.1875 7.015625 C 46.269531 7.078125 46.296875 7.148438 46.265625 7.234375 C 46.242188 7.316406 46.191406 7.394531 46.109375 7.46875 C 46.035156 7.539062 45.953125 7.59375 45.859375 7.625 C 44.515625 7.820312 43.703125 7.335938 43.421875 6.171875 C 43.265625 5.515625 43.238281 4.835938 43.34375 4.140625 C 43.34375 4.085938 43.34375 4.046875 43.34375 4.015625 C 43.445312 2.828125 43.660156 1.644531 43.984375 0.46875 C 44.304688 -0.707031 44.664062 -1.882812 45.0625 -3.0625 C 46.34375 -6.613281 47.757812 -10.113281 49.3125 -13.5625 C 49.382812 -13.707031 49.445312 -13.859375 49.5 -14.015625 C 49.570312 -14.179688 49.65625 -14.351562 49.75 -14.53125 C 49.875 -14.78125 49.988281 -15.03125 50.09375 -15.28125 C 50.195312 -15.53125 50.238281 -15.796875 50.21875 -16.078125 C 50.09375 -16.171875 49.96875 -16.226562 49.84375 -16.25 C 49.71875 -16.28125 49.59375 -16.285156 49.46875 -16.265625 C 49.4375 -16.265625 49.40625 -16.265625 49.375 -16.265625 C 48.3125 -16.265625 47.238281 -16.25 46.15625 -16.21875 C 45.863281 -16.21875 45.550781 -16.21875 45.21875 -16.21875 C 44.820312 -16.195312 44.484375 -16.070312 44.203125 -15.84375 C 43.929688 -15.625 43.671875 -15.347656 43.421875 -15.015625 C 43.097656 -14.597656 42.769531 -14.175781 42.4375 -13.75 C 41.039062 -11.96875 39.632812 -10.203125 38.21875 -8.453125 C 36.113281 -5.910156 33.914062 -3.457031 31.625 -1.09375 C 29.332031 1.269531 26.90625 3.488281 24.34375 5.5625 C 21.113281 8.21875 17.6875 10.554688 14.0625 12.578125 C 8.519531 15.554688 2.707031 16.96875 -3.375 16.8125 C -9.101562 16.6875 -14.269531 15.140625 -18.875 12.171875 C -20.164062 11.335938 -21.3125 10.335938 -22.3125 9.171875 C -22.976562 8.335938 -23.507812 7.441406 -23.90625 6.484375 C -24.300781 5.523438 -24.5 4.484375 -24.5 3.359375 C -24.4375 2.003906 -24.125 0.753906 -23.5625 -0.390625 C -23 -1.546875 -22.21875 -2.597656 -21.21875 -3.546875 C -19.84375 -4.878906 -18.332031 -6.003906 -16.6875 -6.921875 C -15.082031 -7.847656 -13.429688 -8.660156 -11.734375 -9.359375 C -10.035156 -10.054688 -8.320312 -10.679688 -6.59375 -11.234375 C -3.800781 -12.128906 -0.976562 -12.882812 1.875 -13.5 C 4.726562 -14.113281 7.59375 -14.632812 10.46875 -15.0625 C 17.28125 -16.007812 24.113281 -16.632812 30.96875 -16.9375 C 34.46875 -17.15625 37.957031 -17.265625 41.4375 -17.265625 C 42.382812 -17.242188 43.125 -17.644531 43.65625 -18.46875 C 44.570312 -19.769531 45.492188 -21.070312 46.421875 -22.375 C 47.867188 -24.375 49.289062 -26.410156 50.6875 -28.484375 C 57.1875 -38.179688 63.414062 -48.039062 69.375 -58.0625 C 69.875 -58.914062 70.359375 -59.78125 70.828125 -60.65625 C 71.054688 -61.101562 71.296875 -61.550781 71.546875 -62 C 71.847656 -62.582031 72.320312 -62.910156 72.96875 -62.984375 C 73.320312 -62.984375 73.578125 -62.878906 73.734375 -62.671875 C 73.898438 -62.472656 73.921875 -62.210938 73.796875 -61.890625 C 73.671875 -61.617188 73.53125 -61.359375 73.375 -61.109375 C 72.40625 -59.378906 71.546875 -57.628906 70.796875 -55.859375 C 70.515625 -55.234375 70.238281 -54.617188 69.96875 -54.015625 C 67.34375 -48.316406 64.707031 -42.617188 62.0625 -36.921875 C 60.039062 -32.523438 58 -28.113281 55.9375 -23.6875 C 55.34375 -22.382812 54.757812 -21.082031 54.1875 -19.78125 C 54.0625 -19.507812 53.9375 -19.25 53.8125 -19 C 53.789062 -18.945312 53.765625 -18.882812 53.734375 -18.8125 C 53.660156 -18.632812 53.597656 -18.457031 53.546875 -18.28125 C 53.492188 -18.101562 53.507812 -17.929688 53.59375 -17.765625 C 53.757812 -17.640625 53.957031 -17.566406 54.1875 -17.546875 C 54.414062 -17.535156 54.625 -17.53125 54.8125 -17.53125 C 54.96875 -17.5625 55.109375 -17.578125 55.234375 -17.578125 C 56.179688 -17.546875 57.132812 -17.546875 58.09375 -17.578125 C 59.382812 -17.578125 60.679688 -17.5625 61.984375 -17.53125 C 69.078125 -17.40625 76.175781 -17.253906 83.28125 -17.078125 C 85.601562 -17.035156 87.914062 -16.9375 90.21875 -16.78125 C 90.414062 -16.757812 90.628906 -16.75 90.859375 -16.75 C 90.984375 -16.75 91.117188 -16.75 91.265625 -16.75 C 91.566406 -16.75 91.851562 -16.722656 92.125 -16.671875 C 92.40625 -16.617188 92.671875 -16.519531 92.921875 -16.375 C 92.972656 -16.34375 93.007812 -16.289062 93.03125 -16.21875 C 93.050781 -16.144531 93.050781 -16.082031 93.03125 -16.03125 C 93.03125 -15.957031 93 -15.890625 92.9375 -15.828125 C 92.875 -15.765625 92.816406 -15.722656 92.765625 -15.703125 C 92.566406 -15.617188 92.351562 -15.578125 92.125 -15.578125 Z M 41.3125 -15.390625 C 41.394531 -15.546875 41.40625 -15.6875 41.34375 -15.8125 C 41.28125 -15.9375 41.175781 -16 41.03125 -16 C 40.800781 -16.019531 40.5625 -16.019531 40.3125 -16 C 40.1875 -16 40.0625 -16 39.9375 -16 C 31.351562 -15.894531 22.769531 -15.304688 14.1875 -14.234375 C 10.894531 -13.835938 7.625 -13.3125 4.375 -12.65625 C 1.125 -12.007812 -2.09375 -11.195312 -5.28125 -10.21875 C -6.988281 -9.695312 -8.671875 -9.097656 -10.328125 -8.421875 C -11.984375 -7.753906 -13.601562 -6.953125 -15.1875 -6.015625 C -16.832031 -5.097656 -18.332031 -3.972656 -19.6875 -2.640625 C -21.269531 -1.015625 -22.160156 0.710938 -22.359375 2.546875 C -22.554688 4.378906 -22.0625 6.148438 -20.875 7.859375 C -20 9.046875 -18.957031 10.066406 -17.75 10.921875 C -13.3125 14.066406 -8.03125 15.671875 -1.90625 15.734375 C -0.34375 15.734375 1.457031 15.53125 3.5 15.125 C 5.519531 14.695312 7.472656 14.078125 9.359375 13.265625 C 11.242188 12.453125 13.070312 11.492188 14.84375 10.390625 C 19.21875 7.703125 23.269531 4.566406 27 0.984375 C 29.570312 -1.429688 32 -3.976562 34.28125 -6.65625 C 36.570312 -9.332031 38.789062 -12.054688 40.9375 -14.828125 C 41.0625 -15.035156 41.1875 -15.222656 41.3125 -15.390625 Z M 51.75 -18.921875 C 53.394531 -22.671875 55.09375 -26.410156 56.84375 -30.140625 C 56.925781 -30.335938 57.191406 -30.921875 57.640625 -31.890625 C 58.085938 -32.867188 58.601562 -34 59.1875 -35.28125 C 59.769531 -36.570312 60.304688 -37.789062 60.796875 -38.9375 C 61.285156 -40.09375 61.628906 -40.957031 61.828125 -41.53125 C 62.023438 -42.101562 61.960938 -42.15625 61.640625 -41.6875 C 61.566406 -41.582031 61.503906 -41.484375 61.453125 -41.390625 C 61.179688 -40.984375 60.921875 -40.582031 60.671875 -40.1875 C 58.597656 -36.957031 56.507812 -33.734375 54.40625 -30.515625 C 52.300781 -27.304688 50.125 -24.140625 47.875 -21.015625 C 47.65625 -20.722656 47.4375 -20.410156 47.21875 -20.078125 C 46.78125 -19.484375 46.351562 -18.882812 45.9375 -18.28125 C 45.757812 -18.03125 45.707031 -17.820312 45.78125 -17.65625 C 45.863281 -17.5 46.039062 -17.421875 46.3125 -17.421875 C 46.757812 -17.421875 47.207031 -17.429688 47.65625 -17.453125 C 48.363281 -17.503906 49.0625 -17.53125 49.75 -17.53125 C 50.28125 -17.507812 50.691406 -17.625 50.984375 -17.875 C 51.285156 -18.125 51.539062 -18.472656 51.75 -18.921875 Z M 51.75 -18.921875 "/></g></g></g><g fill="#393939" fill-opacity="1"><g transform="translate(107.740404, 197.643137)"><g><path d="M 8.25 -8.125 C 8.625 -8.5 8.9375 -8.707031 9.1875 -8.75 C 9.4375 -8.800781 9.597656 -8.765625 9.671875 -8.640625 C 9.742188 -8.515625 9.695312 -8.34375 9.53125 -8.125 C 8.53125 -6.925781 7.410156 -5.890625 6.171875 -5.015625 C 4.929688 -4.140625 3.65625 -3.632812 2.34375 -3.5 C 1.03125 -3.363281 0.238281 -4.078125 -0.03125 -5.640625 C -0.238281 -7.203125 0.703125 -10.375 2.796875 -15.15625 C 4.890625 -19.9375 6.539062 -23.851562 7.75 -26.90625 C 7.851562 -27.1875 8.007812 -27.425781 8.21875 -27.625 C 8.488281 -27.894531 8.8125 -27.957031 9.1875 -27.8125 C 9.3125 -27.757812 9.4375 -27.671875 9.5625 -27.546875 C 9.6875 -27.421875 9.726562 -27.195312 9.6875 -26.875 C 4.3125 -14.125 1.707031 -7.191406 1.875 -6.078125 C 2.039062 -4.972656 2.757812 -4.703125 4.03125 -5.265625 C 5.300781 -5.828125 6.28125 -6.398438 6.96875 -6.984375 C 7.65625 -7.566406 8.082031 -7.945312 8.25 -8.125 Z M 8.25 -8.125 "/></g></g></g><g fill="#393939" fill-opacity="1"><g transform="translate(115.545351, 197.643137)"><g><path d="M 9.71875 -6.546875 C 9.0625 -5.898438 8.296875 -5.34375 7.421875 -4.875 C 6.546875 -4.414062 5.8125 -4.113281 5.21875 -3.96875 C 4.625 -3.832031 4.015625 -3.753906 3.390625 -3.734375 C 2.390625 -3.691406 1.46875 -3.828125 0.625 -4.140625 C -0.75 -4.703125 -1.222656 -5.765625 -0.796875 -7.328125 C -0.398438 -8.679688 0.398438 -9.738281 1.609375 -10.5 C 2.828125 -11.257812 4.085938 -11.628906 5.390625 -11.609375 C 5.390625 -11.609375 5.398438 -11.609375 5.421875 -11.609375 C 5.753906 -11.628906 6.066406 -11.601562 6.359375 -11.53125 C 6.859375 -11.351562 7.175781 -11.054688 7.3125 -10.640625 C 7.445312 -10.234375 7.359375 -9.78125 7.046875 -9.28125 C 6.316406 -8.1875 5.328125 -7.578125 4.078125 -7.453125 C 3.242188 -7.367188 2.441406 -7.40625 1.671875 -7.5625 C 1.523438 -7.59375 1.394531 -7.554688 1.28125 -7.453125 C 1.164062 -7.347656 1.097656 -7.222656 1.078125 -7.078125 C 0.847656 -6.097656 1.148438 -5.472656 1.984375 -5.203125 C 3.003906 -4.847656 4.066406 -4.847656 5.171875 -5.203125 C 6.441406 -5.597656 7.648438 -6.34375 8.796875 -7.4375 C 9.941406 -8.539062 10.601562 -9.054688 10.78125 -8.984375 C 10.957031 -8.910156 11.007812 -8.703125 10.9375 -8.359375 C 10.78125 -7.796875 10.375 -7.191406 9.71875 -6.546875 Z M 2.453125 -9.28125 C 2.390625 -9.207031 2.34375 -9.117188 2.3125 -9.015625 C 2.28125 -8.921875 2.316406 -8.835938 2.421875 -8.765625 C 2.816406 -8.535156 3.25 -8.453125 3.71875 -8.515625 C 4.1875 -8.578125 4.582031 -8.75 4.90625 -9.03125 C 5.226562 -9.320312 5.363281 -9.679688 5.3125 -10.109375 C 5.28125 -10.253906 5.203125 -10.347656 5.078125 -10.390625 C 4.953125 -10.429688 4.828125 -10.4375 4.703125 -10.40625 C 3.859375 -10.257812 3.109375 -9.882812 2.453125 -9.28125 Z M 2.453125 -9.28125 "/></g></g></g><g fill="#393939" fill-opacity="1"><g transform="translate(124.764643, 197.643137)"><g><path d="M 2.28125 -5.125 C 2.15625 -5.25 2.019531 -5.359375 1.875 -5.453125 C 1.800781 -5.515625 1.738281 -5.566406 1.6875 -5.609375 C 1.289062 -5.460938 0.957031 -5.238281 0.6875 -4.9375 C 0.53125 -4.757812 0.351562 -4.609375 0.15625 -4.484375 C -0.144531 -4.253906 -0.46875 -4.15625 -0.8125 -4.1875 C -1.019531 -4.21875 -1.1875 -4.316406 -1.3125 -4.484375 C -1.332031 -4.503906 -1.34375 -4.5625 -1.34375 -4.65625 C -1.34375 -4.75 -1.332031 -4.816406 -1.3125 -4.859375 C -1.257812 -4.910156 -1.207031 -4.960938 -1.15625 -5.015625 C -0.863281 -5.410156 -0.539062 -5.773438 -0.1875 -6.109375 C 0.1875 -6.453125 0.425781 -6.8125 0.53125 -7.1875 C 0.632812 -7.5625 0.5625 -8 0.3125 -8.5 C 0 -9.21875 -0.238281 -9.976562 -0.40625 -10.78125 C -0.457031 -11.007812 -0.507812 -11.25 -0.5625 -11.5 C -0.664062 -11.84375 -0.5625 -12.140625 -0.25 -12.390625 C -0.03125 -12.546875 0.207031 -12.59375 0.46875 -12.53125 C 0.738281 -12.46875 0.921875 -12.320312 1.015625 -12.09375 C 1.171875 -11.644531 1.320312 -11.195312 1.46875 -10.75 C 1.613281 -10.34375 1.75 -9.929688 1.875 -9.515625 C 2.082031 -9.015625 2.40625 -8.960938 2.84375 -9.359375 C 3.300781 -9.785156 3.769531 -10.222656 4.25 -10.671875 C 4.75 -11.148438 5.25 -11.625 5.75 -12.09375 C 6.144531 -12.46875 6.566406 -12.804688 7.015625 -13.109375 C 7.296875 -13.285156 7.5625 -13.273438 7.8125 -13.078125 C 7.9375 -12.921875 7.984375 -12.785156 7.953125 -12.671875 C 7.921875 -12.566406 7.859375 -12.460938 7.765625 -12.359375 C 6.710938 -11.210938 5.675781 -10.078125 4.65625 -8.953125 C 4.40625 -8.703125 4.15625 -8.453125 3.90625 -8.203125 C 3.425781 -7.804688 3.160156 -7.457031 3.109375 -7.15625 C 3.054688 -6.851562 3.332031 -6.398438 3.9375 -5.796875 C 4.269531 -5.503906 4.785156 -5.472656 5.484375 -5.703125 C 6.179688 -5.941406 6.929688 -6.300781 7.734375 -6.78125 C 8.535156 -7.269531 9.257812 -7.742188 9.90625 -8.203125 C 10.351562 -8.523438 10.71875 -8.757812 11 -8.90625 C 11.664062 -9.257812 12.054688 -9.296875 12.171875 -9.015625 C 12.285156 -8.742188 12.101562 -8.410156 11.625 -8.015625 C 11.375 -7.835938 11.132812 -7.660156 10.90625 -7.484375 C 9.882812 -6.753906 8.863281 -6.03125 7.84375 -5.3125 C 7.320312 -4.96875 6.757812 -4.679688 6.15625 -4.453125 C 5.445312 -4.179688 4.769531 -4.085938 4.125 -4.171875 C 3.476562 -4.253906 2.863281 -4.570312 2.28125 -5.125 Z M 2.28125 -5.125 "/></g></g></g><g fill="#393939" fill-opacity="1"><g transform="translate(134.870034, 197.643137)"><g/></g></g><g fill="#393939" fill-opacity="1"><g transform="translate(147.054344, 197.643137)"><g><path d="M 117.671875 -23.015625 C 116.816406 -22.929688 115.953125 -22.851562 115.078125 -22.78125 C 114.285156 -22.707031 113.484375 -22.632812 112.671875 -22.5625 C 106.878906 -21.957031 101.109375 -21.179688 95.359375 -20.234375 C 88.753906 -19.179688 82.164062 -17.929688 75.59375 -16.484375 C 74.445312 -16.234375 73.382812 -15.769531 72.40625 -15.09375 C 64.5625 -9.875 56.46875 -5.175781 48.125 -1 C 39.789062 3.175781 31.238281 6.910156 22.46875 10.203125 C 18.632812 11.703125 14.734375 12.96875 10.765625 14 C 8.941406 14.46875 7.082031 14.765625 5.1875 14.890625 C 4.9375 14.921875 4.6875 14.9375 4.4375 14.9375 C 3.582031 14.96875 2.769531 14.828125 2 14.515625 C 0.789062 13.992188 0.425781 13.117188 0.90625 11.890625 C 1.28125 11.015625 1.832031 10.242188 2.5625 9.578125 C 3.976562 8.179688 5.550781 6.984375 7.28125 5.984375 C 11.53125 3.484375 15.925781 1.28125 20.46875 -0.625 C 24.96875 -2.570312 29.53125 -4.359375 34.15625 -5.984375 C 34.28125 -6.003906 34.394531 -6.046875 34.5 -6.109375 C 34.644531 -6.171875 34.804688 -6.234375 34.984375 -6.296875 C 35.660156 -6.484375 36.113281 -6.929688 36.34375 -7.640625 C 36.738281 -8.679688 37.148438 -9.71875 37.578125 -10.75 C 37.648438 -10.925781 37.722656 -11.113281 37.796875 -11.3125 C 38.742188 -13.65625 39.707031 -16.015625 40.6875 -18.390625 C 42.507812 -22.867188 44.332031 -27.359375 46.15625 -31.859375 C 47.363281 -34.679688 48.328125 -37.59375 49.046875 -40.59375 C 49.097656 -40.875 49.1875 -41.148438 49.3125 -41.421875 C 49.539062 -41.742188 49.84375 -41.859375 50.21875 -41.765625 C 50.363281 -41.804688 50.523438 -41.804688 50.703125 -41.765625 C 50.847656 -41.734375 50.96875 -41.664062 51.0625 -41.5625 C 51.164062 -41.46875 51.21875 -41.347656 51.21875 -41.203125 C 51.25 -40.742188 51.226562 -40.304688 51.15625 -39.890625 C 50.601562 -37.234375 49.789062 -34.65625 48.71875 -32.15625 C 46.863281 -27.65625 45 -23.144531 43.125 -18.625 C 42.375 -16.769531 41.613281 -14.921875 40.84375 -13.078125 C 40.6875 -12.722656 40.535156 -12.367188 40.390625 -12.015625 C 39.941406 -10.890625 39.476562 -9.753906 39 -8.609375 C 38.976562 -8.566406 38.96875 -8.53125 38.96875 -8.5 C 38.882812 -8.375 38.835938 -8.253906 38.828125 -8.140625 C 38.816406 -8.035156 38.875 -7.929688 39 -7.828125 C 39.019531 -7.804688 39.054688 -7.78125 39.109375 -7.75 C 39.160156 -7.78125 39.222656 -7.804688 39.296875 -7.828125 C 39.328125 -7.828125 39.351562 -7.828125 39.375 -7.828125 C 40.550781 -8.203125 41.710938 -8.578125 42.859375 -8.953125 C 44.910156 -9.617188 46.945312 -10.28125 48.96875 -10.9375 C 56.175781 -13.15625 63.441406 -15.09375 70.765625 -16.75 C 71.640625 -16.945312 72.4375 -17.296875 73.15625 -17.796875 C 75.226562 -19.273438 77.269531 -20.785156 79.28125 -22.328125 C 81.300781 -23.878906 83.234375 -25.519531 85.078125 -27.25 C 87.109375 -29.070312 88.945312 -31.082031 90.59375 -33.28125 C 91.570312 -34.5625 92.3125 -35.972656 92.8125 -37.515625 C 93.488281 -39.890625 93.050781 -41.976562 91.5 -43.78125 C 90.925781 -44.457031 90.28125 -45.03125 89.5625 -45.5 C 88.851562 -45.976562 88.097656 -46.394531 87.296875 -46.75 C 84.566406 -47.914062 81.726562 -48.664062 78.78125 -49 C 76.207031 -49.320312 73.632812 -49.484375 71.0625 -49.484375 C 68.707031 -49.484375 66.359375 -49.382812 64.015625 -49.1875 C 57.984375 -48.707031 52.019531 -47.789062 46.125 -46.4375 C 42.101562 -45.5625 38.160156 -44.472656 34.296875 -43.171875 C 30.429688 -41.878906 26.675781 -40.242188 23.03125 -38.265625 C 21.675781 -37.566406 20.367188 -36.804688 19.109375 -35.984375 C 17.847656 -35.160156 16.644531 -34.257812 15.5 -33.28125 C 14.625 -32.476562 13.8125 -31.628906 13.0625 -30.734375 C 12.5 -30.128906 12.09375 -29.429688 11.84375 -28.640625 C 11.445312 -27.410156 11.710938 -26.359375 12.640625 -25.484375 C 13.210938 -24.929688 13.875 -24.519531 14.625 -24.25 C 15.894531 -23.71875 17.21875 -23.40625 18.59375 -23.3125 C 19.320312 -23.257812 20.0625 -23.222656 20.8125 -23.203125 C 21.8125 -23.148438 22.8125 -23.097656 23.8125 -23.046875 C 24.613281 -22.992188 25.40625 -22.921875 26.1875 -22.828125 C 26.28125 -22.796875 26.363281 -22.742188 26.4375 -22.671875 C 26.507812 -22.597656 26.570312 -22.507812 26.625 -22.40625 C 26.644531 -22.207031 26.59375 -22.078125 26.46875 -22.015625 C 26.34375 -21.953125 26.21875 -21.929688 26.09375 -21.953125 L 25.875 -21.953125 C 25.800781 -21.953125 25.726562 -21.953125 25.65625 -21.953125 C 24.925781 -21.984375 24.210938 -22 23.515625 -22 C 23.296875 -22 23.070312 -22 22.84375 -22 C 22.488281 -22 22.125 -22 21.75 -22 L 21.71875 -22 C 20.695312 -22 19.6875 -22.019531 18.6875 -22.0625 C 17.6875 -22.113281 16.6875 -22.242188 15.6875 -22.453125 C 14.5625 -22.703125 13.46875 -23.078125 12.40625 -23.578125 C 11.84375 -23.847656 11.3125 -24.179688 10.8125 -24.578125 C 9.3125 -25.828125 8.9375 -27.390625 9.6875 -29.265625 C 10.207031 -30.492188 10.957031 -31.570312 11.9375 -32.5 C 13.207031 -33.820312 14.601562 -35.007812 16.125 -36.0625 C 20.269531 -38.90625 24.679688 -41.203125 29.359375 -42.953125 C 33.140625 -44.398438 36.972656 -45.617188 40.859375 -46.609375 C 44.742188 -47.597656 48.675781 -48.414062 52.65625 -49.0625 C 58.769531 -50.144531 64.929688 -50.695312 71.140625 -50.71875 C 71.335938 -50.71875 71.535156 -50.71875 71.734375 -50.71875 C 74.085938 -50.71875 76.429688 -50.597656 78.765625 -50.359375 C 81.097656 -50.117188 83.40625 -49.675781 85.6875 -49.03125 C 87.5625 -48.507812 89.335938 -47.757812 91.015625 -46.78125 C 91.890625 -46.257812 92.675781 -45.632812 93.375 -44.90625 C 95.675781 -42.507812 96.222656 -39.710938 95.015625 -36.515625 C 94.472656 -35.085938 93.722656 -33.757812 92.765625 -32.53125 C 91.015625 -30.226562 89.066406 -28.117188 86.921875 -26.203125 C 84.296875 -23.828125 81.554688 -21.585938 78.703125 -19.484375 C 78.628906 -19.410156 78.53125 -19.347656 78.40625 -19.296875 C 78.257812 -19.191406 78.109375 -19.078125 77.953125 -18.953125 C 77.804688 -18.828125 77.707031 -18.65625 77.65625 -18.4375 C 77.757812 -18.363281 77.847656 -18.328125 77.921875 -18.328125 C 78.046875 -18.347656 78.171875 -18.367188 78.296875 -18.390625 C 78.421875 -18.441406 78.546875 -18.484375 78.671875 -18.515625 C 86.046875 -20.015625 93.441406 -21.25 100.859375 -22.21875 C 104.441406 -22.664062 108.003906 -23.078125 111.546875 -23.453125 C 112.773438 -23.578125 113.992188 -23.703125 115.203125 -23.828125 C 115.617188 -23.878906 116.054688 -23.90625 116.515625 -23.90625 C 116.929688 -23.9375 117.351562 -23.898438 117.78125 -23.796875 C 117.832031 -23.773438 117.882812 -23.734375 117.9375 -23.671875 C 117.988281 -23.609375 118.015625 -23.550781 118.015625 -23.5 C 118.035156 -23.34375 118.007812 -23.226562 117.9375 -23.15625 C 117.863281 -23.082031 117.773438 -23.035156 117.671875 -23.015625 Z M 32.59375 4.359375 C 32.59375 4.359375 32.601562 4.359375 32.625 4.359375 C 32.800781 4.285156 32.96875 4.1875 33.125 4.0625 C 33.289062 3.9375 33.398438 3.765625 33.453125 3.546875 C 33.398438 3.546875 33.363281 3.546875 33.34375 3.546875 C 32.84375 3.566406 32.519531 3.5 32.375 3.34375 C 32.238281 3.195312 32.234375 2.910156 32.359375 2.484375 C 32.429688 2.210938 32.53125 1.941406 32.65625 1.671875 C 32.6875 1.585938 32.710938 1.523438 32.734375 1.484375 C 32.929688 0.984375 33.117188 0.492188 33.296875 0.015625 C 33.742188 -1.066406 34.171875 -2.15625 34.578125 -3.25 C 34.597656 -3.300781 34.632812 -3.363281 34.6875 -3.4375 C 34.757812 -3.613281 34.804688 -3.78125 34.828125 -3.9375 C 34.859375 -4.101562 34.820312 -4.273438 34.71875 -4.453125 C 34.695312 -4.453125 34.675781 -4.453125 34.65625 -4.453125 C 34.53125 -4.429688 34.414062 -4.390625 34.3125 -4.328125 C 34.238281 -4.304688 34.175781 -4.285156 34.125 -4.265625 C 30.945312 -3.117188 27.804688 -1.90625 24.703125 -0.625 C 21.609375 0.65625 18.550781 2.046875 15.53125 3.546875 C 13.070312 4.710938 10.695312 6.023438 8.40625 7.484375 C 7.070312 8.273438 5.859375 9.222656 4.765625 10.328125 C 4.171875 10.867188 3.71875 11.53125 3.40625 12.3125 C 3.3125 12.5625 3.316406 12.796875 3.421875 13.015625 C 3.535156 13.242188 3.734375 13.398438 4.015625 13.484375 C 4.335938 13.578125 4.675781 13.625 5.03125 13.625 C 5.40625 13.625 5.78125 13.585938 6.15625 13.515625 C 8.570312 13.085938 10.96875 12.484375 13.34375 11.703125 C 18.5 10.054688 23.578125 8.179688 28.578125 6.078125 C 29.921875 5.535156 31.257812 4.960938 32.59375 4.359375 Z M 67.265625 -13.890625 C 67.296875 -13.941406 67.335938 -13.984375 67.390625 -14.015625 C 67.484375 -14.054688 67.554688 -14.113281 67.609375 -14.1875 C 67.660156 -14.269531 67.648438 -14.382812 67.578125 -14.53125 C 67.453125 -14.507812 67.3125 -14.472656 67.15625 -14.421875 C 66.3125 -14.191406 65.472656 -13.976562 64.640625 -13.78125 C 62.367188 -13.1875 60.109375 -12.578125 57.859375 -11.953125 C 51.609375 -10.203125 45.410156 -8.265625 39.265625 -6.140625 C 38.734375 -5.960938 38.285156 -5.722656 37.921875 -5.421875 C 37.566406 -5.128906 37.3125 -4.703125 37.15625 -4.140625 C 37.0625 -3.867188 36.953125 -3.597656 36.828125 -3.328125 C 36.753906 -3.203125 36.691406 -3.078125 36.640625 -2.953125 C 36.484375 -2.578125 36.234375 -2.050781 35.890625 -1.375 C 35.535156 -0.695312 35.179688 0.015625 34.828125 0.765625 C 34.484375 1.515625 34.242188 2.15625 34.109375 2.6875 C 33.972656 3.226562 34.03125 3.535156 34.28125 3.609375 C 34.625 3.535156 34.945312 3.398438 35.25 3.203125 C 35.394531 3.117188 35.546875 3.046875 35.703125 2.984375 C 42.472656 0.00390625 49.097656 -3.296875 55.578125 -6.921875 C 58.148438 -8.398438 60.695312 -9.898438 63.21875 -11.421875 C 64.320312 -12.097656 65.421875 -12.757812 66.515625 -13.40625 C 66.546875 -13.4375 66.570312 -13.453125 66.59375 -13.453125 C 66.84375 -13.578125 67.066406 -13.722656 67.265625 -13.890625 Z M 67.265625 -13.890625 "/></g></g></g><g fill="#393939" fill-opacity="1"><g transform="translate(221.5212, 197.643137)"><g><path d="M 2.703125 -4.046875 L 2.65625 -4.046875 C 1.007812 -4.066406 -0.0703125 -4.429688 -0.59375 -5.140625 C -1.113281 -5.847656 -1.09375 -6.796875 -0.53125 -7.984375 C -0.0507812 -8.878906 0.550781 -9.660156 1.28125 -10.328125 C 1.53125 -10.554688 1.785156 -10.738281 2.046875 -10.875 C 2.304688 -11.007812 2.601562 -11.078125 2.9375 -11.078125 C 3.125 -11.109375 3.34375 -11.070312 3.59375 -10.96875 C 3.675781 -10.945312 3.753906 -10.921875 3.828125 -10.890625 C 4.023438 -10.921875 4.210938 -10.984375 4.390625 -11.078125 C 4.441406 -11.109375 4.503906 -11.132812 4.578125 -11.15625 C 4.953125 -11.3125 5.351562 -11.375 5.78125 -11.34375 C 5.945312 -11.34375 6.125 -11.34375 6.3125 -11.34375 C 6.976562 -11.25 7.476562 -10.96875 7.8125 -10.5 C 8.15625 -10.039062 8.28125 -9.484375 8.1875 -8.828125 C 8.125 -8.429688 8 -8.054688 7.8125 -7.703125 C 6.5 -5.359375 4.832031 -4.140625 2.8125 -4.046875 Z M 5.40625 -10.140625 C 4.507812 -10.171875 3.707031 -9.910156 3 -9.359375 C 2.300781 -8.816406 1.78125 -8.1875 1.4375 -7.46875 C 1.101562 -6.75 1.007812 -6.160156 1.15625 -5.703125 C 1.3125 -5.242188 1.789062 -5.113281 2.59375 -5.3125 C 3.488281 -5.59375 4.28125 -6.109375 4.96875 -6.859375 C 5.65625 -7.609375 6.070312 -8.316406 6.21875 -8.984375 C 6.375 -9.660156 6.101562 -10.046875 5.40625 -10.140625 Z M 5.40625 -10.140625 "/></g></g></g><g fill="#393939" fill-opacity="1"><g transform="translate(229.871433, 197.643137)"><g><path d="M 17.8125 -8.546875 C 18.207031 -8.785156 18.519531 -8.84375 18.75 -8.71875 C 18.976562 -8.601562 18.894531 -8.253906 18.5 -7.671875 C 18 -7.003906 17.101562 -6.285156 15.8125 -5.515625 C 14.519531 -4.753906 13.378906 -4.421875 12.390625 -4.515625 C 11.398438 -4.617188 11.113281 -5.351562 11.53125 -6.71875 C 11.945312 -8.082031 12.171875 -8.84375 12.203125 -9 C 12.234375 -9.164062 12.203125 -9.257812 12.109375 -9.28125 C 12.015625 -9.3125 11.789062 -9.203125 11.4375 -8.953125 C 10.414062 -8.242188 9.414062 -7.503906 8.4375 -6.734375 C 8.019531 -6.410156 7.601562 -6.078125 7.1875 -5.734375 C 6.9375 -5.503906 6.675781 -5.273438 6.40625 -5.046875 C 6.40625 -5.046875 6.394531 -5.035156 6.375 -5.015625 C 6.082031 -4.710938 5.71875 -4.515625 5.28125 -4.421875 C 5.09375 -4.359375 4.890625 -4.332031 4.671875 -4.34375 C 4.453125 -4.363281 4.269531 -4.453125 4.125 -4.609375 C 3.957031 -4.773438 3.894531 -4.953125 3.9375 -5.140625 C 3.976562 -5.328125 4.117188 -5.609375 4.359375 -5.984375 C 4.597656 -6.359375 4.863281 -6.769531 5.15625 -7.21875 C 5.445312 -7.664062 5.609375 -7.941406 5.640625 -8.046875 C 5.671875 -8.148438 5.65625 -8.253906 5.59375 -8.359375 C 5.507812 -8.453125 5.421875 -8.476562 5.328125 -8.4375 C 5.234375 -8.40625 4.875 -8.164062 4.25 -7.71875 C 3.625 -7.269531 2.769531 -6.640625 1.6875 -5.828125 C 1.1875 -5.453125 0.695312 -5.066406 0.21875 -4.671875 C 0.09375 -4.546875 -0.0390625 -4.429688 -0.1875 -4.328125 C -0.539062 -4.035156 -0.925781 -3.878906 -1.34375 -3.859375 C -1.65625 -3.828125 -1.882812 -3.890625 -2.03125 -4.046875 C -2.175781 -4.210938 -2.195312 -4.429688 -2.09375 -4.703125 C -2.03125 -4.910156 -1.945312 -5.097656 -1.84375 -5.265625 C -1.78125 -5.347656 -1.738281 -5.425781 -1.71875 -5.5 C -0.820312 -7.320312 0.0625 -9.144531 0.9375 -10.96875 C 0.957031 -11.019531 0.976562 -11.082031 1 -11.15625 C 1.101562 -11.351562 1.207031 -11.539062 1.3125 -11.71875 C 1.582031 -12.019531 1.90625 -12.117188 2.28125 -12.015625 C 2.71875 -11.890625 2.882812 -11.640625 2.78125 -11.265625 C 2.570312 -10.691406 2.375 -10.128906 2.1875 -9.578125 C 2.082031 -9.328125 1.976562 -9.078125 1.875 -8.828125 C 1.707031 -8.390625 1.65625 -8.109375 1.71875 -7.984375 C 1.78125 -7.859375 2.0625 -7.941406 2.5625 -8.234375 C 2.894531 -8.460938 3.226562 -8.6875 3.5625 -8.90625 C 3.957031 -9.1875 4.34375 -9.4375 4.71875 -9.65625 C 5.300781 -10.007812 5.894531 -10.3125 6.5 -10.5625 C 6.789062 -10.6875 7.09375 -10.78125 7.40625 -10.84375 C 7.71875 -10.90625 8.007812 -10.835938 8.28125 -10.640625 C 8.488281 -10.460938 8.578125 -10.265625 8.546875 -10.046875 C 8.515625 -9.835938 8.457031 -9.632812 8.375 -9.4375 C 8.207031 -9.0625 8.140625 -8.820312 8.171875 -8.71875 C 8.203125 -8.625 8.289062 -8.609375 8.4375 -8.671875 C 8.582031 -8.734375 8.84375 -8.875 9.21875 -9.09375 C 9.59375 -9.320312 10 -9.570312 10.4375 -9.84375 C 10.976562 -10.195312 11.550781 -10.535156 12.15625 -10.859375 C 12.65625 -11.179688 13.1875 -11.378906 13.75 -11.453125 C 14.539062 -11.503906 14.863281 -11.1875 14.71875 -10.5 C 14.570312 -9.8125 14.296875 -8.992188 13.890625 -8.046875 C 13.484375 -7.097656 13.441406 -6.515625 13.765625 -6.296875 C 14.085938 -6.085938 14.804688 -6.382812 15.921875 -7.1875 C 17.035156 -7.988281 17.664062 -8.441406 17.8125 -8.546875 Z M 17.8125 -8.546875 "/></g></g></g><g fill="#393939" fill-opacity="1"><g transform="translate(247.201943, 197.643137)"><g><path d="M 12.359375 -8.671875 C 12.628906 -8.523438 12.648438 -8.15625 12.421875 -7.5625 C 12.097656 -7.132812 11.75 -6.734375 11.375 -6.359375 C 11 -5.984375 10.585938 -5.648438 10.140625 -5.359375 C 10.109375 -5.359375 10.09375 -5.34375 10.09375 -5.3125 C 9.789062 -5.113281 9.476562 -4.941406 9.15625 -4.796875 C 6.4375 -3.816406 5.050781 -4.390625 5 -6.515625 C 3.894531 -5.554688 3.15625 -4.96875 2.78125 -4.75 C 1.882812 -4.21875 0.910156 -3.984375 -0.140625 -4.046875 C -0.910156 -4.085938 -1.429688 -4.320312 -1.703125 -4.75 C -1.984375 -5.175781 -1.960938 -5.753906 -1.640625 -6.484375 C -1.140625 -7.628906 -0.425781 -8.648438 0.5 -9.546875 C 1.570312 -10.546875 2.769531 -11.347656 4.09375 -11.953125 C 4.789062 -12.296875 5.53125 -12.429688 6.3125 -12.359375 C 7.082031 -12.304688 7.546875 -11.867188 7.703125 -11.046875 C 7.773438 -10.796875 7.710938 -10.570312 7.515625 -10.375 C 7.265625 -10.144531 6.972656 -10.09375 6.640625 -10.21875 C 6.617188 -10.21875 6.585938 -10.222656 6.546875 -10.234375 C 6.515625 -10.253906 6.484375 -10.273438 6.453125 -10.296875 C 6.128906 -10.742188 5.796875 -10.929688 5.453125 -10.859375 C 5.117188 -10.785156 4.765625 -10.632812 4.390625 -10.40625 C 2.640625 -9.382812 1.34375 -7.960938 0.5 -6.140625 C 0.445312 -6.054688 0.414062 -5.96875 0.40625 -5.875 C 0.394531 -5.78125 0.425781 -5.703125 0.5 -5.640625 C 0.695312 -5.578125 0.921875 -5.59375 1.171875 -5.6875 C 1.421875 -5.78125 1.671875 -5.921875 1.921875 -6.109375 C 2.171875 -6.296875 2.382812 -6.453125 2.5625 -6.578125 C 2.582031 -6.609375 2.59375 -6.625 2.59375 -6.625 C 3.414062 -7.320312 4.226562 -8.035156 5.03125 -8.765625 C 5.382812 -9.140625 5.820312 -9.347656 6.34375 -9.390625 C 7.09375 -9.390625 7.40625 -9.054688 7.28125 -8.390625 C 7.207031 -8.140625 7.132812 -7.890625 7.0625 -7.640625 C 6.757812 -6.554688 6.742188 -5.921875 7.015625 -5.734375 C 7.296875 -5.546875 7.71875 -5.546875 8.28125 -5.734375 C 8.84375 -5.921875 9.40625 -6.28125 9.96875 -6.8125 C 10.53125 -7.34375 11.003906 -7.820312 11.390625 -8.25 C 11.773438 -8.6875 12.097656 -8.828125 12.359375 -8.671875 Z M 12.359375 -8.671875 "/></g></g></g><g fill="#393939" fill-opacity="1"><g transform="translate(257.801505, 197.643137)"><g><path d="M 13.5 -8.5 C 13.675781 -8.28125 13.445312 -7.867188 12.8125 -7.265625 C 12.175781 -6.660156 11.5 -6.148438 10.78125 -5.734375 C 10.070312 -5.328125 9.242188 -4.921875 8.296875 -4.515625 C 7.671875 -4.242188 7.003906 -4.148438 6.296875 -4.234375 C 5.597656 -4.328125 5.25 -4.753906 5.25 -5.515625 C 5.25 -6.285156 5.425781 -7.046875 5.78125 -7.796875 C 6.132812 -8.566406 6.207031 -8.960938 6 -8.984375 C 5.800781 -9.003906 5.390625 -8.816406 4.765625 -8.421875 C 3.140625 -7.347656 1.628906 -6.125 0.234375 -4.75 C -0.140625 -4.300781 -0.613281 -4.050781 -1.1875 -4 C -1.488281 -4 -1.71875 -4.09375 -1.875 -4.28125 C -2.039062 -4.46875 -2.0625 -4.671875 -1.9375 -4.890625 C -0.9375 -6.742188 0.0703125 -8.570312 1.09375 -10.375 C 1.320312 -10.75 1.660156 -10.984375 2.109375 -11.078125 C 2.304688 -11.109375 2.484375 -11.046875 2.640625 -10.890625 C 2.804688 -10.742188 2.890625 -10.570312 2.890625 -10.375 C 2.867188 -10.195312 2.796875 -9.984375 2.671875 -9.734375 C 2.617188 -9.585938 2.566406 -9.441406 2.515625 -9.296875 C 2.460938 -9.160156 2.441406 -9.046875 2.453125 -8.953125 C 2.472656 -8.867188 2.546875 -8.84375 2.671875 -8.875 C 2.847656 -8.96875 3.019531 -9.066406 3.1875 -9.171875 C 3.613281 -9.421875 4.03125 -9.660156 4.4375 -9.890625 C 4.78125 -10.085938 5.144531 -10.265625 5.53125 -10.421875 C 5.925781 -10.585938 6.332031 -10.695312 6.75 -10.75 C 7.425781 -10.800781 7.90625 -10.648438 8.1875 -10.296875 C 8.476562 -9.941406 8.515625 -9.453125 8.296875 -8.828125 C 8.066406 -8.265625 7.828125 -7.703125 7.578125 -7.140625 C 7.273438 -6.617188 7.222656 -6.222656 7.421875 -5.953125 C 7.628906 -5.679688 8.582031 -5.992188 10.28125 -6.890625 L 11.5625 -7.640625 C 12.757812 -8.410156 13.40625 -8.695312 13.5 -8.5 Z M 13.5 -8.5 "/></g></g></g><g fill="#393939" fill-opacity="1"><g transform="translate(269.593901, 197.643137)"><g><path d="M 2.703125 -4.046875 L 2.65625 -4.046875 C 1.007812 -4.066406 -0.0703125 -4.429688 -0.59375 -5.140625 C -1.113281 -5.847656 -1.09375 -6.796875 -0.53125 -7.984375 C -0.0507812 -8.878906 0.550781 -9.660156 1.28125 -10.328125 C 1.53125 -10.554688 1.785156 -10.738281 2.046875 -10.875 C 2.304688 -11.007812 2.601562 -11.078125 2.9375 -11.078125 C 3.125 -11.109375 3.34375 -11.070312 3.59375 -10.96875 C 3.675781 -10.945312 3.753906 -10.921875 3.828125 -10.890625 C 4.023438 -10.921875 4.210938 -10.984375 4.390625 -11.078125 C 4.441406 -11.109375 4.503906 -11.132812 4.578125 -11.15625 C 4.953125 -11.3125 5.351562 -11.375 5.78125 -11.34375 C 5.945312 -11.34375 6.125 -11.34375 6.3125 -11.34375 C 6.976562 -11.25 7.476562 -10.96875 7.8125 -10.5 C 8.15625 -10.039062 8.28125 -9.484375 8.1875 -8.828125 C 8.125 -8.429688 8 -8.054688 7.8125 -7.703125 C 6.5 -5.359375 4.832031 -4.140625 2.8125 -4.046875 Z M 5.40625 -10.140625 C 4.507812 -10.171875 3.707031 -9.910156 3 -9.359375 C 2.300781 -8.816406 1.78125 -8.1875 1.4375 -7.46875 C 1.101562 -6.75 1.007812 -6.160156 1.15625 -5.703125 C 1.3125 -5.242188 1.789062 -5.113281 2.59375 -5.3125 C 3.488281 -5.59375 4.28125 -6.109375 4.96875 -6.859375 C 5.65625 -7.609375 6.070312 -8.316406 6.21875 -8.984375 C 6.375 -9.660156 6.101562 -10.046875 5.40625 -10.140625 Z M 5.40625 -10.140625 "/></g></g></g><g fill="#393939" fill-opacity="1"><g transform="translate(277.944134, 197.643137)"><g><path d="M 10.875 -14.34375 C 10.769531 -14.09375 10.644531 -13.859375 10.5 -13.640625 C 8.644531 -10.640625 6.539062 -7.847656 4.1875 -5.265625 C 3.875 -4.890625 3.53125 -4.554688 3.15625 -4.265625 C 2.800781 -4.015625 2.425781 -3.835938 2.03125 -3.734375 C 0.90625 -3.535156 0.25 -3.984375 0.0625 -5.078125 C 0.0195312 -5.765625 0.0195312 -6.441406 0.0625 -7.109375 C 0.0625 -7.410156 0.0625 -7.710938 0.0625 -8.015625 C 0.0625 -8.015625 0.0820312 -8.015625 0.125 -8.015625 C 0.125 -8.210938 0.125 -8.410156 0.125 -8.609375 C 0.125 -9.109375 0.125 -9.609375 0.125 -10.109375 C 0.125 -10.378906 0.132812 -10.65625 0.15625 -10.9375 C 0.28125 -11.5625 0.59375 -11.882812 1.09375 -11.90625 C 1.632812 -11.882812 1.9375 -11.5 2 -10.75 C 2 -10.550781 1.976562 -10.363281 1.9375 -10.1875 C 1.914062 -10.007812 1.90625 -9.847656 1.90625 -9.703125 C 1.863281 -8.597656 1.832031 -7.484375 1.8125 -6.359375 C 1.8125 -6.109375 1.914062 -5.960938 2.125 -5.921875 C 2.207031 -5.921875 2.28125 -5.9375 2.34375 -5.96875 C 2.40625 -6 2.457031 -6.046875 2.5 -6.109375 C 3.164062 -6.878906 3.8125 -7.648438 4.4375 -8.421875 C 4.6875 -8.722656 4.9375 -9.023438 5.1875 -9.328125 C 5.457031 -9.671875 5.726562 -10.003906 6 -10.328125 C 7.082031 -11.679688 8.164062 -13.019531 9.25 -14.34375 C 9.375 -14.519531 9.519531 -14.671875 9.6875 -14.796875 C 9.851562 -14.921875 10.0625 -14.984375 10.3125 -14.984375 C 10.519531 -14.960938 10.695312 -14.890625 10.84375 -14.765625 C 10.882812 -14.710938 10.90625 -14.644531 10.90625 -14.5625 C 10.90625 -14.488281 10.894531 -14.414062 10.875 -14.34375 Z M 10.875 -14.34375 "/></g></g></g><g fill="#393939" fill-opacity="1"><g transform="translate(286.311403, 197.643137)"><g><path d="M 12.359375 -8.671875 C 12.628906 -8.523438 12.648438 -8.15625 12.421875 -7.5625 C 12.097656 -7.132812 11.75 -6.734375 11.375 -6.359375 C 11 -5.984375 10.585938 -5.648438 10.140625 -5.359375 C 10.109375 -5.359375 10.09375 -5.34375 10.09375 -5.3125 C 9.789062 -5.113281 9.476562 -4.941406 9.15625 -4.796875 C 6.4375 -3.816406 5.050781 -4.390625 5 -6.515625 C 3.894531 -5.554688 3.15625 -4.96875 2.78125 -4.75 C 1.882812 -4.21875 0.910156 -3.984375 -0.140625 -4.046875 C -0.910156 -4.085938 -1.429688 -4.320312 -1.703125 -4.75 C -1.984375 -5.175781 -1.960938 -5.753906 -1.640625 -6.484375 C -1.140625 -7.628906 -0.425781 -8.648438 0.5 -9.546875 C 1.570312 -10.546875 2.769531 -11.347656 4.09375 -11.953125 C 4.789062 -12.296875 5.53125 -12.429688 6.3125 -12.359375 C 7.082031 -12.304688 7.546875 -11.867188 7.703125 -11.046875 C 7.773438 -10.796875 7.710938 -10.570312 7.515625 -10.375 C 7.265625 -10.144531 6.972656 -10.09375 6.640625 -10.21875 C 6.617188 -10.21875 6.585938 -10.222656 6.546875 -10.234375 C 6.515625 -10.253906 6.484375 -10.273438 6.453125 -10.296875 C 6.128906 -10.742188 5.796875 -10.929688 5.453125 -10.859375 C 5.117188 -10.785156 4.765625 -10.632812 4.390625 -10.40625 C 2.640625 -9.382812 1.34375 -7.960938 0.5 -6.140625 C 0.445312 -6.054688 0.414062 -5.96875 0.40625 -5.875 C 0.394531 -5.78125 0.425781 -5.703125 0.5 -5.640625 C 0.695312 -5.578125 0.921875 -5.59375 1.171875 -5.6875 C 1.421875 -5.78125 1.671875 -5.921875 1.921875 -6.109375 C 2.171875 -6.296875 2.382812 -6.453125 2.5625 -6.578125 C 2.582031 -6.609375 2.59375 -6.625 2.59375 -6.625 C 3.414062 -7.320312 4.226562 -8.035156 5.03125 -8.765625 C 5.382812 -9.140625 5.820312 -9.347656 6.34375 -9.390625 C 7.09375 -9.390625 7.40625 -9.054688 7.28125 -8.390625 C 7.207031 -8.140625 7.132812 -7.890625 7.0625 -7.640625 C 6.757812 -6.554688 6.742188 -5.921875 7.015625 -5.734375 C 7.296875 -5.546875 7.71875 -5.546875 8.28125 -5.734375 C 8.84375 -5.921875 9.40625 -6.28125 9.96875 -6.8125 C 10.53125 -7.34375 11.003906 -7.820312 11.390625 -8.25 C 11.773438 -8.6875 12.097656 -8.828125 12.359375 -8.671875 Z M 6.640625 -17.046875 C 6.722656 -17.171875 6.835938 -17.25 6.984375 -17.28125 C 7.128906 -17.320312 7.28125 -17.34375 7.4375 -17.34375 C 7.488281 -17.320312 7.523438 -17.3125 7.546875 -17.3125 C 7.597656 -17.3125 7.660156 -17.296875 7.734375 -17.265625 C 8.109375 -17.191406 8.3125 -17.078125 8.34375 -16.921875 C 8.382812 -16.773438 8.34375 -16.613281 8.21875 -16.4375 C 8.09375 -16.269531 7.957031 -16.109375 7.8125 -15.953125 C 7.4375 -15.554688 7.070312 -15.109375 6.71875 -14.609375 C 6.414062 -14.179688 6.144531 -13.84375 5.90625 -13.59375 C 5.675781 -13.34375 5.5 -13.304688 5.375 -13.484375 C 5.25 -13.585938 5.175781 -13.707031 5.15625 -13.84375 C 5.144531 -13.976562 5.164062 -14.117188 5.21875 -14.265625 C 5.320312 -14.722656 5.484375 -15.148438 5.703125 -15.546875 C 5.929688 -15.941406 6.171875 -16.328125 6.421875 -16.703125 C 6.492188 -16.804688 6.566406 -16.921875 6.640625 -17.046875 Z M 6.640625 -17.046875 "/></g></g></g><g fill="#393939" fill-opacity="1"><g transform="translate(143.441761, 247.34203)"><g><path d="M 6.71875 0 L 5.640625 0 L 2.8125 -3.8125 L 1.984375 -3.0625 L 1.984375 0 L 1.078125 0 L 1.078125 -7.828125 L 1.984375 -7.828125 L 1.984375 -3.921875 C 2.179688 -4.160156 2.382812 -4.394531 2.59375 -4.625 C 2.8125 -4.851562 3.03125 -5.082031 3.25 -5.3125 L 5.53125 -7.828125 L 6.59375 -7.828125 L 3.484375 -4.4375 Z M 6.71875 0 "/></g></g></g><g fill="#393939" fill-opacity="1"><g transform="translate(152.353678, 247.34203)"><g><path d="M 7.859375 -3.921875 C 7.859375 -3.316406 7.78125 -2.765625 7.625 -2.265625 C 7.476562 -1.773438 7.253906 -1.351562 6.953125 -1 C 6.648438 -0.644531 6.273438 -0.367188 5.828125 -0.171875 C 5.378906 0.015625 4.863281 0.109375 4.28125 0.109375 C 3.664062 0.109375 3.132812 0.015625 2.6875 -0.171875 C 2.238281 -0.367188 1.863281 -0.644531 1.5625 -1 C 1.257812 -1.363281 1.035156 -1.789062 0.890625 -2.28125 C 0.742188 -2.78125 0.671875 -3.332031 0.671875 -3.9375 C 0.671875 -4.738281 0.800781 -5.441406 1.0625 -6.046875 C 1.332031 -6.648438 1.734375 -7.117188 2.265625 -7.453125 C 2.804688 -7.785156 3.484375 -7.953125 4.296875 -7.953125 C 5.066406 -7.953125 5.71875 -7.785156 6.25 -7.453125 C 6.78125 -7.117188 7.179688 -6.648438 7.453125 -6.046875 C 7.722656 -5.453125 7.859375 -4.742188 7.859375 -3.921875 Z M 1.625 -3.921875 C 1.625 -3.253906 1.71875 -2.675781 1.90625 -2.1875 C 2.101562 -1.707031 2.394531 -1.335938 2.78125 -1.078125 C 3.175781 -0.816406 3.675781 -0.6875 4.28125 -0.6875 C 4.882812 -0.6875 5.378906 -0.816406 5.765625 -1.078125 C 6.148438 -1.335938 6.4375 -1.707031 6.625 -2.1875 C 6.8125 -2.675781 6.90625 -3.253906 6.90625 -3.921875 C 6.90625 -4.929688 6.691406 -5.722656 6.265625 -6.296875 C 5.847656 -6.867188 5.191406 -7.15625 4.296875 -7.15625 C 3.679688 -7.15625 3.175781 -7.023438 2.78125 -6.765625 C 2.394531 -6.503906 2.101562 -6.128906 1.90625 -5.640625 C 1.71875 -5.160156 1.625 -4.585938 1.625 -3.921875 Z M 1.625 -3.921875 "/></g></g></g><g fill="#393939" fill-opacity="1"><g transform="translate(163.081222, 247.34203)"><g><path d="M 5.484375 -2.078125 C 5.484375 -1.617188 5.367188 -1.222656 5.140625 -0.890625 C 4.910156 -0.566406 4.585938 -0.316406 4.171875 -0.140625 C 3.765625 0.0234375 3.28125 0.109375 2.71875 0.109375 C 2.414062 0.109375 2.132812 0.09375 1.875 0.0625 C 1.613281 0.03125 1.367188 -0.0078125 1.140625 -0.0625 C 0.921875 -0.113281 0.726562 -0.175781 0.5625 -0.25 L 0.5625 -1.125 C 0.832031 -1.019531 1.160156 -0.921875 1.546875 -0.828125 C 1.929688 -0.734375 2.332031 -0.6875 2.75 -0.6875 C 3.144531 -0.6875 3.476562 -0.738281 3.75 -0.84375 C 4.019531 -0.945312 4.222656 -1.097656 4.359375 -1.296875 C 4.503906 -1.492188 4.578125 -1.734375 4.578125 -2.015625 C 4.578125 -2.273438 4.515625 -2.492188 4.390625 -2.671875 C 4.273438 -2.859375 4.082031 -3.023438 3.8125 -3.171875 C 3.539062 -3.316406 3.171875 -3.472656 2.703125 -3.640625 C 2.367188 -3.765625 2.070312 -3.894531 1.8125 -4.03125 C 1.5625 -4.175781 1.347656 -4.335938 1.171875 -4.515625 C 1.003906 -4.691406 0.878906 -4.894531 0.796875 -5.125 C 0.710938 -5.363281 0.671875 -5.632812 0.671875 -5.9375 C 0.671875 -6.363281 0.773438 -6.722656 0.984375 -7.015625 C 1.191406 -7.316406 1.484375 -7.546875 1.859375 -7.703125 C 2.242188 -7.859375 2.679688 -7.9375 3.171875 -7.9375 C 3.585938 -7.9375 3.972656 -7.894531 4.328125 -7.8125 C 4.679688 -7.738281 5.003906 -7.640625 5.296875 -7.515625 L 5.015625 -6.734375 C 4.734375 -6.847656 4.429688 -6.941406 4.109375 -7.015625 C 3.796875 -7.097656 3.472656 -7.140625 3.140625 -7.140625 C 2.804688 -7.140625 2.523438 -7.085938 2.296875 -6.984375 C 2.066406 -6.890625 1.890625 -6.753906 1.765625 -6.578125 C 1.640625 -6.398438 1.578125 -6.1875 1.578125 -5.9375 C 1.578125 -5.664062 1.632812 -5.4375 1.75 -5.25 C 1.875 -5.070312 2.0625 -4.910156 2.3125 -4.765625 C 2.570312 -4.628906 2.910156 -4.484375 3.328125 -4.328125 C 3.785156 -4.160156 4.175781 -3.984375 4.5 -3.796875 C 4.820312 -3.609375 5.066406 -3.378906 5.234375 -3.109375 C 5.398438 -2.835938 5.484375 -2.492188 5.484375 -2.078125 Z M 5.484375 -2.078125 "/></g></g></g><g fill="#393939" fill-opacity="1"><g transform="translate(171.291524, 247.34203)"><g><path d="M 4.515625 0 L 1.890625 -6.9375 L 1.84375 -6.9375 C 1.851562 -6.78125 1.863281 -6.597656 1.875 -6.390625 C 1.882812 -6.179688 1.894531 -5.953125 1.90625 -5.703125 C 1.914062 -5.453125 1.921875 -5.203125 1.921875 -4.953125 L 1.921875 0 L 1.078125 0 L 1.078125 -7.828125 L 2.421875 -7.828125 L 4.90625 -1.3125 L 4.9375 -1.3125 L 7.453125 -7.828125 L 8.796875 -7.828125 L 8.796875 0 L 7.890625 0 L 7.890625 -5.015625 C 7.890625 -5.242188 7.894531 -5.472656 7.90625 -5.703125 C 7.914062 -5.941406 7.925781 -6.164062 7.9375 -6.375 C 7.945312 -6.582031 7.957031 -6.765625 7.96875 -6.921875 L 7.921875 -6.921875 L 5.265625 0 Z M 4.515625 0 "/></g></g></g><g fill="#393939" fill-opacity="1"><g transform="translate(183.352671, 247.34203)"><g><path d="M 5.4375 0 L 1.078125 0 L 1.078125 -7.828125 L 5.4375 -7.828125 L 5.4375 -7.03125 L 1.984375 -7.03125 L 1.984375 -4.5 L 5.234375 -4.5 L 5.234375 -3.703125 L 1.984375 -3.703125 L 1.984375 -0.796875 L 5.4375 -0.796875 Z M 5.4375 0 "/></g></g></g><g fill="#393939" fill-opacity="1"><g transform="translate(191.643312, 247.34203)"><g><path d="M 3.46875 0 L 2.5625 0 L 2.5625 -7.03125 L 0.09375 -7.03125 L 0.09375 -7.828125 L 5.921875 -7.828125 L 5.921875 -7.03125 L 3.46875 -7.03125 Z M 3.46875 0 "/></g></g></g><g fill="#393939" fill-opacity="1"><g transform="translate(199.880391, 247.34203)"><g><path d="M 1.078125 0 L 1.078125 -7.828125 L 1.984375 -7.828125 L 1.984375 0 Z M 1.078125 0 "/></g></g></g><g fill="#393939" fill-opacity="1"><g transform="translate(205.139626, 247.34203)"><g><path d="M 6.71875 0 L 5.640625 0 L 2.8125 -3.8125 L 1.984375 -3.0625 L 1.984375 0 L 1.078125 0 L 1.078125 -7.828125 L 1.984375 -7.828125 L 1.984375 -3.921875 C 2.179688 -4.160156 2.382812 -4.394531 2.59375 -4.625 C 2.8125 -4.851562 3.03125 -5.082031 3.25 -5.3125 L 5.53125 -7.828125 L 6.59375 -7.828125 L 3.484375 -4.4375 Z M 6.71875 0 "/></g></g></g><g fill="#393939" fill-opacity="1"><g transform="translate(214.05154, 247.34203)"><g><path d="M 5.984375 0 L 5.015625 -2.484375 L 1.875 -2.484375 L 0.921875 0 L 0 0 L 3.0625 -7.859375 L 3.890625 -7.859375 L 6.921875 0 Z M 4.75 -3.296875 L 3.828125 -5.765625 C 3.804688 -5.828125 3.769531 -5.929688 3.71875 -6.078125 C 3.675781 -6.222656 3.628906 -6.375 3.578125 -6.53125 C 3.523438 -6.6875 3.484375 -6.816406 3.453125 -6.921875 C 3.421875 -6.765625 3.382812 -6.613281 3.34375 -6.46875 C 3.300781 -6.332031 3.257812 -6.203125 3.21875 -6.078125 C 3.175781 -5.953125 3.140625 -5.847656 3.109375 -5.765625 L 2.1875 -3.296875 Z M 4.75 -3.296875 "/></g></g></g></svg>