<svg xmlns="http://www.w3.org/2000/svg" width="500" viewBox="0 0 375 375" height="500" version="1.0"><path fill="#fff" d="M-37.5-37.5h450v450h-450z"/><path fill="#f2f2f2" d="M-37.5-37.5h450v450h-450z"/><path d="M75.871 229.719v-1.969c2.125-.707 4.196-2.098 6.22-4.172 2.03-2.082 4.21-6.008 6.546-11.781l29.922-74.156c.914-2.426.816-4.805-.297-7.14l-1.375-3.188 11.39-5.172 37.391 89.797c2.32 5.68 4.422 9.558 6.297 11.64 1.875 2.074 3.625 3.465 5.25 4.172v1.969h-23.562v-1.969c2.332-.707 3.296-2.098 2.89-4.172-.406-2.082-1.824-5.96-4.25-11.64l-9.265-22.328h-42.844l-8.969 22.187c-3.855 9.617-3.246 14.934 1.828 15.953v1.969Zm25.22-42.39h41.015l-20.813-49.985ZM183.589 229.719v-1.969c2.332-.707 3.926-2.226 4.781-4.562.863-2.332 1.297-6.586 1.297-12.766v-67.766c0-6.28-.434-10.554-1.297-12.828-.855-2.281-2.45-3.773-4.781-4.484v-1.984H219.9c10.438 0 19.348 1.496 26.735 4.484 7.394 2.992 13.422 6.969 18.078 11.937 4.664 4.961 8.086 10.454 10.266 16.485 2.175 6.023 3.265 12.12 3.265 18.297.102 10.636-2.101 20.109-6.61 28.422-4.511 8.304-10.898 14.835-19.155 19.593-8.25 4.762-17.946 7.14-29.079 7.14Zm18.531-13.375c0 3.555.61 6.293 1.828 8.219 1.219 1.918 3.899 2.875 8.047 2.875h11.094c13.27 0 23.473-3.82 30.61-11.47 7.144-7.644 10.718-19.421 10.718-35.327 0-10.125-1.977-19.336-5.922-27.64-3.95-8.313-9.773-14.946-17.469-19.907-7.699-4.969-17.226-7.453-28.578-7.453H202.12Zm0 0" fill="#ded6c9"/><path d="M146.546 182.065a57.24 57.24 0 0 0-6.563-.375 336.84 336.84 0 0 0-2.953-.078 453.366 453.366 0 0 0-27.375-.297h-1.125c-.5-.031-.867-.023-1.094.016-.218.03-.398.156-.531.375-.137.21-.297.554-.484 1.03-.125.274-.274.61-.438 1.017a152.592 152.592 0 0 0-4.203 10.125 43.789 43.789 0 0 0-1.922 6.812 6.963 6.963 0 0 0-.172 2.125c.051.688.36 1.3.922 1.844.082.062.11.133.078.219a.506.506 0 0 1-.156.234.674.674 0 0 1-.25.156c-1.344.195-2.156-.289-2.437-1.453a5.285 5.285 0 0 1-.079-2.031v-.125c.102-1.188.317-2.371.641-3.547.32-1.176.68-2.352 1.078-3.531 1.281-3.551 2.695-7.051 4.25-10.5a4.24 4.24 0 0 0 .188-.453c.07-.165.156-.336.25-.516.125-.25.238-.5.343-.75.102-.25.145-.516.125-.797a.897.897 0 0 0-.375-.172.935.935 0 0 0-.375-.015h-.093c-1.063 0-2.137.015-3.22.046h-.937a1.732 1.732 0 0 0-1.015.375 4.567 4.567 0 0 0-.781.829l-.985 1.265a482.326 482.326 0 0 1-4.219 5.297 126.862 126.862 0 0 1-6.593 7.36 82.16 82.16 0 0 1-7.282 6.656 69.448 69.448 0 0 1-10.28 7.015c-5.544 2.977-11.356 4.39-17.438 4.235-5.727-.125-10.895-1.672-15.5-4.641a15.95 15.95 0 0 1-3.438-3 11.266 11.266 0 0 1-1.594-2.687 8.14 8.14 0 0 1-.593-3.125c.062-1.356.375-2.606.937-3.75.563-1.157 1.344-2.208 2.344-3.157a21.673 21.673 0 0 1 4.531-3.375 41.857 41.857 0 0 1 4.953-2.437c1.7-.696 3.414-1.32 5.14-1.875a90.554 90.554 0 0 1 8.47-2.266 137.632 137.632 0 0 1 8.593-1.562 220.187 220.187 0 0 1 20.5-1.875c3.5-.22 6.989-.328 10.47-.328.944.023 1.687-.38 2.218-1.204.914-1.3 1.836-2.601 2.766-3.906 1.445-2 2.867-4.035 4.265-6.11a646.772 646.772 0 0 0 18.688-29.577c.5-.852.984-1.72 1.453-2.594.226-.445.469-.895.719-1.344.3-.582.773-.91 1.421-.984.352 0 .61.105.766.312.164.2.188.461.063.782a6.809 6.809 0 0 1-.422.78 53.43 53.43 0 0 0-2.578 5.25c-.282.626-.56 1.243-.829 1.845-2.625 5.699-5.261 11.398-7.906 17.093a2958 2958 0 0 1-6.125 13.235 308.562 308.562 0 0 0-1.75 3.906c-.125.273-.25.531-.375.781-.023.055-.047.117-.078.188-.074.18-.137.355-.187.53a.658.658 0 0 0 .046.517c.164.125.364.199.594.218.227.012.438.016.625.016.156-.031.297-.047.422-.047.945.031 1.898.031 2.86 0 1.288 0 2.585.016 3.89.047 7.094.125 14.191.277 21.297.453 2.32.043 4.633.14 6.937.297.196.023.41.031.641.031h.406c.301 0 .586.027.86.078.28.055.547.153.797.297.05.031.085.086.109.156.02.075.02.137 0 .188 0 .074-.031.14-.094.203a.538.538 0 0 1-.172.125c-.199.086-.414.125-.64.125Zm-50.813.188c.082-.157.094-.297.031-.422a.324.324 0 0 0-.312-.188c-.23-.02-.469-.02-.719 0h-.375c-8.586.106-17.168.695-25.75 1.766-3.293.398-6.562.922-9.812 1.578a99.215 99.215 0 0 0-9.657 2.437 59.616 59.616 0 0 0-5.046 1.797 35.985 35.985 0 0 0-4.86 2.407 20.992 20.992 0 0 0-4.5 3.375c-1.582 1.625-2.473 3.351-2.672 5.187-.195 1.832.297 3.602 1.485 5.313a13.679 13.679 0 0 0 3.125 3.062c4.437 3.145 9.718 4.75 15.843 4.813 1.563 0 3.364-.204 5.407-.61a31.174 31.174 0 0 0 5.859-1.86 41.717 41.717 0 0 0 5.484-2.874 71.674 71.674 0 0 0 12.157-9.406c2.57-2.415 5-4.961 7.28-7.641a216.946 216.946 0 0 0 6.657-8.172c.125-.207.25-.395.375-.562Zm10.438-3.532a486.072 486.072 0 0 1 5.093-11.218c.082-.196.348-.782.797-1.75.446-.977.961-2.11 1.547-3.391a207.78 207.78 0 0 0 1.61-3.656c.488-1.157.832-2.02 1.03-2.594.196-.57.134-.625-.187-.156a3.027 3.027 0 0 0-.187.297c-.274.406-.531.808-.781 1.203-2.075 3.23-4.165 6.453-6.266 9.672a264.073 264.073 0 0 1-6.531 9.5c-.22.292-.438.605-.657.937a68.74 68.74 0 0 0-1.28 1.797c-.18.25-.231.46-.157.625.082.156.258.234.531.234.445 0 .895-.008 1.344-.031.707-.05 1.406-.078 2.094-.078.53.023.941-.094 1.234-.344.3-.25.555-.598.766-1.047Zm0 0" fill="#393939"/><path d="M115.99 189.518c.375-.375.688-.582.938-.625.25-.05.41-.015.484.11.07.125.024.296-.14.515-1 1.2-2.121 2.235-3.36 3.11-1.242.875-2.515 1.382-3.828 1.515-1.312.137-2.105-.578-2.375-2.14-.207-1.563.735-4.735 2.828-9.516 2.094-4.781 3.742-8.695 4.953-11.75.102-.281.258-.52.47-.719.269-.27.593-.332.968-.187.125.054.25.14.375.265s.164.352.125.672c-5.375 12.75-7.98 19.684-7.813 20.797.164 1.105.883 1.375 2.157.813 1.27-.563 2.25-1.133 2.937-1.72.688-.581 1.113-.96 1.281-1.14Zm0 0" fill="#393939"/><path d="M125.264 191.096a9.866 9.866 0 0 1-2.297 1.672c-.875.461-1.61.762-2.203.906a9.442 9.442 0 0 1-1.828.235c-1 .043-1.922-.094-2.766-.406-1.375-.563-1.847-1.625-1.422-3.188.399-1.352 1.196-2.41 2.407-3.172 1.218-.758 2.476-1.129 3.781-1.11h.031c.332-.019.645.009.938.079.5.18.816.476.953.89.133.407.047.86-.266 1.36-.73 1.094-1.719 1.703-2.969 1.828a7.939 7.939 0 0 1-2.406-.11.425.425 0 0 0-.39.11.6.6 0 0 0-.204.375c-.23.98.07 1.605.907 1.875 1.02.355 2.082.355 3.187 0 1.27-.395 2.477-1.14 3.625-2.234 1.145-1.102 1.805-1.618 1.985-1.547.175.074.226.281.156.625-.156.562-.563 1.168-1.219 1.812Zm-7.266-2.734a.752.752 0 0 0-.14.266c-.031.093.004.18.11.25.394.23.827.312 1.296.25a2.21 2.21 0 0 0 1.188-.516c.32-.29.457-.649.406-1.078-.031-.145-.11-.239-.235-.281a.682.682 0 0 0-.375-.016 4.404 4.404 0 0 0-2.25 1.125Zm0 0" fill="#393939"/><path d="M127.046 192.518a2.492 2.492 0 0 0-.406-.328l-.188-.156c-.398.148-.73.37-1 .672a2.44 2.44 0 0 1-.531.453c-.3.23-.625.328-.969.297a.737.737 0 0 1-.5-.297c-.02-.02-.031-.078-.031-.172a.51.51 0 0 1 .031-.203c.055-.051.106-.102.156-.156.293-.395.618-.758.97-1.094.374-.344.612-.703.718-1.078.101-.375.031-.813-.219-1.313a11.68 11.68 0 0 1-.719-2.281l-.156-.719c-.101-.344 0-.64.313-.89a.844.844 0 0 1 .718-.141c.27.062.454.21.547.437.157.45.305.899.453 1.344.145.406.282.82.407 1.235.207.5.53.554.968.156l1.407-1.313c.5-.476 1-.953 1.5-1.422.394-.375.816-.71 1.265-1.015.282-.176.547-.164.797.031.125.156.172.293.14.406a.804.804 0 0 1-.187.313 697.569 697.569 0 0 0-3.11 3.406l-.75.75c-.48.398-.745.746-.796 1.047-.055.305.223.758.828 1.36.332.292.848.323 1.547.093.695-.238 1.445-.598 2.25-1.078.8-.488 1.523-.961 2.172-1.422a9.92 9.92 0 0 1 1.094-.703c.664-.352 1.054-.39 1.172-.11.113.274-.07.606-.547 1-.25.18-.493.356-.72.532-1.023.73-2.042 1.453-3.062 2.172a8.572 8.572 0 0 1-1.687.859c-.711.273-1.387.367-2.031.281-.649-.082-1.262-.398-1.844-.953ZM264.726 174.628c-.855.085-1.719.164-2.594.234-.793.074-1.593.148-2.406.219a297.006 297.006 0 0 0-17.312 2.328 345.71 345.71 0 0 0-19.766 3.75 8.87 8.87 0 0 0-3.187 1.39 228.082 228.082 0 0 1-24.282 14.094 266.073 266.073 0 0 1-25.656 11.203 103.735 103.735 0 0 1-11.703 3.797 30.408 30.408 0 0 1-5.578.89c-.25.032-.5.048-.75.048a5.838 5.838 0 0 1-2.438-.422c-1.21-.524-1.574-1.399-1.093-2.625a6.626 6.626 0 0 1 1.656-2.313 23.15 23.15 0 0 1 4.719-3.593c4.25-2.5 8.644-4.704 13.187-6.61 4.5-1.945 9.063-3.734 13.688-5.36a.956.956 0 0 0 .343-.124c.145-.063.305-.125.485-.188.675-.187 1.129-.633 1.36-1.343.394-1.04.804-2.079 1.233-3.11.07-.176.145-.363.22-.562.945-2.344 1.91-4.703 2.89-7.078a13553.3 13553.3 0 0 0 5.469-13.47 54.356 54.356 0 0 0 2.89-8.734c.051-.28.14-.554.266-.828.226-.32.531-.437.906-.343.145-.04.305-.04.484 0a.675.675 0 0 1 .36.203.473.473 0 0 1 .156.359c.031.46.008.898-.062 1.313a40.79 40.79 0 0 1-2.438 7.734c-1.855 4.5-3.719 9.012-5.594 13.531a532.438 532.438 0 0 1-2.28 5.547c-.157.355-.31.71-.454 1.063-.45 1.125-.914 2.261-1.39 3.406a.224.224 0 0 0-.032.11.734.734 0 0 0-.14.359c-.012.105.046.21.171.312.02.023.055.047.11.078a.847.847 0 0 1 .187-.078h.078c1.176-.375 2.336-.75 3.485-1.125 2.05-.664 4.086-1.328 6.11-1.984a295.783 295.783 0 0 1 21.796-5.813 6.707 6.707 0 0 0 2.39-1.047 219.315 219.315 0 0 0 6.126-4.531 76.922 76.922 0 0 0 5.796-4.922 41.472 41.472 0 0 0 5.516-6.031 14.115 14.115 0 0 0 2.219-4.234c.676-2.375.238-4.461-1.313-6.266a8.962 8.962 0 0 0-1.937-1.719 14.964 14.964 0 0 0-2.266-1.25 30.387 30.387 0 0 0-8.515-2.25 62.475 62.475 0 0 0-7.72-.484c-2.355 0-4.702.101-7.046.297a124.024 124.024 0 0 0-17.89 2.75 110.866 110.866 0 0 0-11.829 3.265 70.46 70.46 0 0 0-11.265 4.907 44.65 44.65 0 0 0-3.922 2.28 35.305 35.305 0 0 0-3.61 2.704 27.206 27.206 0 0 0-2.437 2.547 5.466 5.466 0 0 0-1.219 2.094c-.398 1.23-.133 2.28.797 3.156.57.554 1.234.965 1.984 1.234 1.27.531 2.594.844 3.97.938.726.054 1.468.09 2.218.109 1 .055 2 .105 3 .156.8.055 1.594.125 2.375.219a.674.674 0 0 1 .25.156c.07.074.133.164.187.266.02.2-.03.328-.156.39a.584.584 0 0 1-.375.063h-.437a50.146 50.146 0 0 0-2.141-.047h-1.796c-1.024 0-2.032-.02-3.032-.062-1-.051-2-.18-3-.391a15.669 15.669 0 0 1-3.281-1.125 8.312 8.312 0 0 1-1.594-1c-1.5-1.25-1.875-2.812-1.125-4.687a9.547 9.547 0 0 1 2.25-3.235 27.534 27.534 0 0 1 4.187-3.562 61.192 61.192 0 0 1 13.235-6.891 104.746 104.746 0 0 1 11.5-3.656 137.314 137.314 0 0 1 11.797-2.453 108.192 108.192 0 0 1 18.484-1.657h.594c2.351 0 4.695.121 7.031.36 2.332.242 4.64.683 6.922 1.328a22.691 22.691 0 0 1 5.328 2.25 11.33 11.33 0 0 1 2.36 1.875c2.3 2.398 2.847 5.195 1.64 8.39a15.244 15.244 0 0 1-2.25 3.985 44.676 44.676 0 0 1-5.844 6.328 105.85 105.85 0 0 1-8.219 6.719.88.88 0 0 1-.296.187 9.945 9.945 0 0 0-.454.344.921.921 0 0 0-.296.516c.101.074.191.109.265.109.125-.02.25-.04.375-.062.125-.051.25-.094.375-.125 7.375-1.5 14.77-2.735 22.188-3.704 3.582-.445 7.144-.859 10.687-1.234l3.656-.375c.415-.05.852-.078 1.313-.078a4.13 4.13 0 0 1 1.266.11c.05.023.101.062.156.124.05.063.078.121.078.172.02.156-.008.274-.078.344a.504.504 0 0 1-.266.14Zm-85.078 27.375h.031c.176-.075.344-.172.5-.297a.9.9 0 0 0 .328-.516h-.109c-.5.02-.824-.047-.969-.203-.136-.149-.14-.434-.015-.86.07-.273.172-.542.297-.812.03-.086.054-.148.078-.187.195-.5.383-.993.562-1.47a100.93 100.93 0 0 0 1.281-3.265.835.835 0 0 1 .11-.187 2.26 2.26 0 0 0 .14-.5c.032-.164-.007-.336-.109-.516h-.062a1.005 1.005 0 0 0-.344.125c-.074.023-.137.043-.188.063-3.18 1.148-6.32 2.359-9.422 3.64a147.281 147.281 0 0 0-9.171 4.172 64.472 64.472 0 0 0-7.125 3.938 17.929 17.929 0 0 0-3.641 2.843 5.296 5.296 0 0 0-1.36 1.985.862.862 0 0 0 .016.703c.113.226.313.383.594.469.32.093.66.14 1.016.14.375 0 .75-.039 1.125-.11a52.327 52.327 0 0 0 7.187-1.812 183.54 183.54 0 0 0 15.234-5.625 111.7 111.7 0 0 0 4.016-1.718Zm34.672-18.25a.348.348 0 0 1 .125-.125.508.508 0 0 0 .219-.172c.05-.082.039-.196-.032-.344a3.389 3.389 0 0 0-.421.11 72.05 72.05 0 0 1-2.516.64 453.3 453.3 0 0 0-6.781 1.828 324.953 324.953 0 0 0-18.594 5.813c-.531.18-.98.417-1.344.718-.355.293-.61.719-.765 1.282a8.414 8.414 0 0 1-.329.812c-.074.125-.136.25-.187.375-.156.375-.406.902-.75 1.578-.356.68-.711 1.39-1.063 2.14-.343.75-.585 1.391-.718 1.923-.137.539-.078.847.172.922.343-.075.664-.211.968-.407.145-.086.297-.156.453-.218a233.037 233.037 0 0 0 19.875-9.907 408.404 408.404 0 0 0 7.641-4.5 254.44 254.44 0 0 1 3.297-1.984c.031-.031.055-.047.078-.047.25-.125.473-.27.672-.437Zm0 0" fill="#393939"/><path d="M224.224 193.596h-.047c-1.648-.02-2.726-.383-3.25-1.093-.52-.708-.5-1.657.063-2.844a8.762 8.762 0 0 1 1.812-2.344c.25-.227.504-.41.766-.547.258-.133.555-.203.89-.203.188-.031.407.008.657.11.082.023.16.046.234.078.196-.032.383-.094.563-.188a.847.847 0 0 1 .187-.078 2.587 2.587 0 0 1 1.203-.188h.532c.664.094 1.164.375 1.5.844.343.461.468 1.016.375 1.672a3.539 3.539 0 0 1-.375 1.125c-1.313 2.344-2.98 3.563-5 3.656Zm2.703-6.093c-.898-.032-1.699.23-2.406.78-.699.544-1.219 1.173-1.562 1.891-.336.72-.43 1.309-.282 1.766.157.46.633.59 1.438.39.894-.28 1.687-.796 2.375-1.546.687-.75 1.102-1.457 1.25-2.125.156-.676-.117-1.063-.813-1.156Zm0 0" fill="#393939"/><path d="M247.684 189.096c.394-.238.707-.297.937-.172.227.118.145.465-.25 1.047-.5.668-1.398 1.387-2.687 2.157-1.293.761-2.434 1.093-3.422 1-.992-.102-1.277-.836-.86-2.204.415-1.363.641-2.125.673-2.28.03-.165 0-.259-.094-.282-.094-.031-.32.078-.672.328a61.907 61.907 0 0 0-3 2.219c-.418.324-.836.656-1.25 1-.25.23-.512.46-.781.687l-.032.032c-.293.304-.656.5-1.093.593-.188.063-.39.09-.61.078a.822.822 0 0 1-.547-.265c-.168-.164-.23-.344-.187-.531.039-.188.18-.47.422-.844.238-.375.504-.785.797-1.235.289-.445.453-.722.484-.828a.378.378 0 0 0-.047-.312c-.086-.094-.172-.117-.265-.078-.094.03-.454.273-1.079.718-.625.45-1.48 1.079-2.562 1.891-.5.375-.992.762-1.469 1.156a2.864 2.864 0 0 1-.406.344c-.352.293-.738.45-1.156.469-.313.031-.54-.031-.688-.188-.144-.164-.164-.383-.062-.656.062-.207.148-.395.25-.562a.69.69 0 0 0 .125-.235c.898-1.82 1.78-3.644 2.656-5.469.02-.05.039-.113.062-.187.102-.195.207-.383.313-.563.27-.3.594-.398.969-.296.437.125.601.375.5.75a74.43 74.43 0 0 0-.594 1.687c-.106.25-.211.5-.313.75-.168.438-.218.719-.156.844.063.125.344.043.844-.25.332-.227.664-.453 1-.672.394-.281.781-.531 1.156-.75a13.18 13.18 0 0 1 1.781-.906c.29-.125.594-.22.907-.282.312-.062.601.008.875.204.207.18.297.375.265.593-.03.211-.09.414-.172.61-.168.375-.234.617-.203.718.032.094.117.11.266.047.144-.062.406-.203.781-.422.375-.226.781-.476 1.219-.75a23.18 23.18 0 0 1 1.719-1.015c.5-.32 1.03-.52 1.593-.594.79-.05 1.114.266.97.953-.15.688-.423 1.508-.829 2.453-.406.95-.45 1.532-.125 1.75.32.211 1.04-.086 2.156-.89l1.89-1.36Zm0 0" fill="#393939"/><path d="M259.561 188.971c.27.149.29.516.063 1.11-.324.43-.672.828-1.047 1.203-.375.375-.79.71-1.234 1-.032 0-.047.015-.047.047-.305.199-.617.37-.938.515-2.719.98-4.105.407-4.156-1.718-1.106.96-1.844 1.546-2.219 1.765a5.027 5.027 0 0 1-2.922.703c-.77-.039-1.289-.273-1.562-.703-.281-.426-.258-1.004.062-1.734a9.59 9.59 0 0 1 2.14-3.063c1.071-1 2.27-1.8 3.595-2.406a4.09 4.09 0 0 1 2.218-.406c.77.054 1.235.492 1.391 1.312.07.25.008.477-.187.672-.25.23-.543.281-.875.156a.33.33 0 0 1-.094-.015 1.302 1.302 0 0 1-.094-.063c-.324-.445-.656-.633-1-.562-.336.074-.687.226-1.062.453-1.75 1.023-3.047 2.445-3.891 4.266a.574.574 0 0 0-.094.265.25.25 0 0 0 .094.235c.195.062.422.046.672-.047.25-.094.5-.235.75-.422.25-.188.46-.344.64-.469l.032-.047c.82-.695 1.633-1.41 2.437-2.14.352-.375.79-.583 1.313-.625.75 0 1.062.335.937 1-.074.25-.148.5-.219.75-.304 1.085-.32 1.718-.046 1.906.28.187.703.187 1.265 0 .563-.188 1.125-.547 1.688-1.078a25.323 25.323 0 0 0 1.422-1.438c.382-.437.707-.578.968-.422Zm0 0" fill="#393939"/><path d="M271.302 189.143c.175.219-.055.633-.688 1.235a10.702 10.702 0 0 1-2.031 1.53c-.711.407-1.54.813-2.485 1.22a3.77 3.77 0 0 1-2 .28c-.699-.093-1.046-.519-1.046-1.28 0-.77.175-1.532.53-2.282.352-.77.427-1.164.22-1.187-.2-.02-.61.168-1.235.562a30.004 30.004 0 0 0-4.531 3.672c-.375.45-.848.7-1.422.75-.3 0-.531-.094-.687-.281-.165-.188-.188-.39-.063-.61 1-1.851 2.008-3.68 3.031-5.484.227-.375.567-.61 1.016-.703a.592.592 0 0 1 .531.188c.164.148.25.32.25.515a2.07 2.07 0 0 1-.219.64 30.42 30.42 0 0 0-.156.438.707.707 0 0 0-.062.344c.02.086.093.11.218.078.176-.094.348-.191.516-.297.426-.25.844-.488 1.25-.718a9.15 9.15 0 0 1 1.094-.532c.394-.164.8-.273 1.219-.328.675-.05 1.156.102 1.437.453.29.356.328.844.11 1.469-.231.563-.47 1.125-.72 1.688-.304.523-.355.917-.156 1.187.207.273 1.16-.04 2.86-.937l1.281-.75c1.195-.77 1.844-1.055 1.938-.86Zm0 0" fill="#393939"/><path d="M272.297 193.596h-.047c-1.648-.02-2.726-.383-3.25-1.093-.52-.708-.5-1.657.063-2.844a8.762 8.762 0 0 1 1.812-2.344c.25-.227.504-.41.766-.547.258-.133.554-.203.89-.203.188-.031.407.008.657.11.082.023.16.046.234.078.195-.032.383-.094.563-.188a.847.847 0 0 1 .187-.078 2.587 2.587 0 0 1 1.203-.188h.531c.664.094 1.164.375 1.5.844.344.461.47 1.016.375 1.672a3.539 3.539 0 0 1-.375 1.125c-1.312 2.344-2.98 3.563-5 3.656Zm2.703-6.093c-.898-.032-1.7.23-2.406.78-.7.544-1.219 1.173-1.563 1.891-.336.72-.43 1.309-.28 1.766.155.46.632.59 1.437.39.894-.28 1.687-.796 2.375-1.546.687-.75 1.101-1.457 1.25-2.125.156-.676-.118-1.063-.813-1.156ZM288.82 183.3c-.106.25-.231.484-.376.703-1.855 3-3.96 5.792-6.312 8.375-.313.375-.657.71-1.032 1-.355.25-.73.43-1.125.53-1.125.2-1.78-.25-1.968-1.343a16.02 16.02 0 0 1 0-2.031v-.906h.062v-2.094c0-.27.008-.547.031-.828.125-.625.438-.946.938-.97.539.024.844.407.906 1.157 0 .2-.023.387-.062.563a3.71 3.71 0 0 0-.032.484 155.565 155.565 0 0 0-.093 3.344c0 .25.101.398.312.437a.487.487 0 0 0 .219-.047.412.412 0 0 0 .156-.14c.664-.77 1.313-1.54 1.938-2.313.25-.3.5-.601.75-.906.27-.344.539-.676.812-1a439.535 439.535 0 0 1 3.25-4.016 2.01 2.01 0 0 1 .438-.453c.164-.125.375-.187.625-.187a.968.968 0 0 1 .53.219.34.34 0 0 1 .063.203.822.822 0 0 1-.03.218ZM298.67 188.971c.27.149.29.516.063 1.11-.324.43-.672.828-1.047 1.203-.375.375-.789.71-1.234 1-.031 0-.047.015-.047.047-.305.199-.617.37-.937.515-2.72.98-4.106.407-4.157-1.718-1.105.96-1.843 1.546-2.218 1.765a5.027 5.027 0 0 1-2.922.703c-.77-.039-1.29-.273-1.563-.703-.281-.426-.258-1.004.063-1.734a9.59 9.59 0 0 1 2.14-3.063c1.07-1 2.27-1.8 3.594-2.406a4.09 4.09 0 0 1 2.219-.406c.77.054 1.234.492 1.39 1.312.07.25.008.477-.187.672-.25.23-.543.281-.875.156a.33.33 0 0 1-.094-.015 1.302 1.302 0 0 1-.093-.063c-.325-.445-.657-.633-1-.562-.336.074-.688.226-1.063.453-1.75 1.023-3.047 2.445-3.89 4.266a.574.574 0 0 0-.094.265.25.25 0 0 0 .093.235c.196.062.422.046.672-.047.25-.094.5-.235.75-.422.25-.188.461-.344.64-.469l.032-.047c.82-.695 1.633-1.41 2.438-2.14.351-.375.789-.583 1.312-.625.75 0 1.063.335.938 1-.075.25-.149.5-.22.75-.304 1.085-.32 1.718-.046 1.906.281.187.703.187 1.266 0 .562-.188 1.125-.547 1.687-1.078a25.323 25.323 0 0 0 1.422-1.438c.383-.437.707-.578.969-.422Zm-5.718-8.375a.524.524 0 0 1 .344-.234c.144-.04.297-.063.453-.063.05.024.086.032.11.032.05 0 .113.015.187.047.375.074.578.187.61.343.038.149 0 .309-.126.485a5.926 5.926 0 0 1-.406.484c-.375.398-.742.844-1.094 1.344-.305.43-.574.765-.812 1.015-.23.25-.407.29-.532.11a.564.564 0 0 1-.218-.36.966.966 0 0 1 .062-.421c.102-.458.266-.883.485-1.282.226-.394.468-.781.718-1.156a5.95 5.95 0 0 0 .219-.344ZM150.16 247.342h-1.078l-2.828-3.812-.828.75v3.062h-.906v-7.828h.906v3.906c.195-.238.399-.473.61-.703l.656-.687 2.281-2.516h1.063l-3.11 3.39ZM160.213 243.42c0 .606-.078 1.156-.234 1.656a3.449 3.449 0 0 1-.672 1.266c-.305.355-.68.633-1.125.828-.45.188-.965.281-1.547.281-.617 0-1.149-.093-1.594-.28a3.038 3.038 0 0 1-1.125-.829 3.495 3.495 0 0 1-.672-1.281 5.801 5.801 0 0 1-.218-1.656c0-.801.128-1.504.39-2.11.27-.601.672-1.07 1.203-1.406.54-.332 1.22-.5 2.032-.5.77 0 1.421.168 1.953.5.53.336.93.805 1.203 1.406.27.594.406 1.305.406 2.125Zm-6.234 0c0 .668.093 1.246.28 1.735.196.48.49.851.876 1.109.394.262.894.39 1.5.39.601 0 1.098-.128 1.484-.39.383-.258.672-.629.86-1.11.187-.488.28-1.066.28-1.734 0-1.008-.214-1.8-.64-2.375-.418-.57-1.074-.86-1.968-.86-.618 0-1.122.134-1.516.391-.387.262-.68.637-.875 1.125-.188.48-.281 1.055-.281 1.72ZM168.566 245.264c0 .46-.118.855-.344 1.187-.23.325-.555.575-.969.75-.406.164-.89.25-1.453.25a7.037 7.037 0 0 1-1.578-.171 3.142 3.142 0 0 1-.578-.188v-.875c.27.105.597.203.984.297.383.094.785.14 1.203.14.395 0 .727-.05 1-.156.27-.101.473-.254.61-.453.144-.195.218-.437.218-.719a1.12 1.12 0 0 0-.187-.656c-.117-.187-.309-.351-.578-.5a8.77 8.77 0 0 0-1.11-.469 7.474 7.474 0 0 1-.89-.39 2.963 2.963 0 0 1-.64-.485 1.695 1.695 0 0 1-.376-.609 2.383 2.383 0 0 1-.125-.812c0-.426.102-.786.313-1.079.207-.3.5-.53.875-.687a3.45 3.45 0 0 1 1.312-.234c.414 0 .8.042 1.156.125.352.074.676.171.97.296l-.282.782a6.146 6.146 0 0 0-.906-.282 3.808 3.808 0 0 0-.97-.125 2.06 2.06 0 0 0-.843.157c-.23.093-.406.23-.531.406-.125.18-.188.39-.188.64 0 .274.055.5.172.688.125.18.313.34.563.484.258.137.597.282 1.015.438a7.58 7.58 0 0 1 1.172.531c.32.188.567.418.735.688.164.273.25.617.25 1.03ZM175.807 247.342l-2.625-6.937h-.047c.008.156.02.34.032.546.007.211.02.438.03.688.009.25.016.5.016.75v4.953h-.843v-7.828h1.343l2.485 6.516h.031l2.516-6.516h1.343v7.828h-.906v-5.016a29.124 29.124 0 0 1 .047-1.36c.008-.206.02-.39.031-.546h-.047l-2.656 6.922ZM188.79 247.342h-4.36v-7.828h4.36v.797h-3.453v2.531h3.25v.797h-3.25v2.906h3.453ZM195.112 247.342h-.906v-7.031h-2.469v-.797h5.828v.797h-2.453ZM200.959 247.342v-7.828h.906v7.828ZM211.858 247.342h-1.078l-2.828-3.812-.828.75v3.062h-.906v-7.828h.906v3.906c.195-.238.398-.473.61-.703l.656-.687 2.28-2.516h1.063l-3.109 3.39ZM220.036 247.342l-.969-2.484h-3.14l-.954 2.484h-.921l3.062-7.86h.828l3.031 7.86Zm-1.234-3.297-.922-2.469a13.57 13.57 0 0 1-.11-.312 18.81 18.81 0 0 0-.14-.453 8.108 8.108 0 0 1-.125-.39c-.032.155-.07.308-.11.452l-.125.39c-.043.126-.078.231-.11.313l-.921 2.47Zm0 0" fill="#393939"/></svg>